<svg aria-hidden="true" style="position: absolute; width: 0; height: 0; overflow: hidden;" version="1.1" xmlns="http://www.w3.org/2000/svg" xmlns:xlink="http://www.w3.org/1999/xlink">
<defs>
<symbol id="icon-nurburgring-icon" viewBox="0 0 32 32">
<path fill="#58585a" style="fill: var(--color1, #58585a)" d="M4.455 20.949h0.74c0.082 0 0.132 0.050 0.132 0.132v0.27h0.978l2.935-2.945h1.179l-3.625 3.635c-0.073 0.074-0.157 0.124-0.288 0.124h-1.989c-0.164 0-0.296-0.103-0.296-0.265v-0.782c0-0.145 0.137-0.169 0.233-0.169zM1.779 23.619v-1.986c0-0.095 0.040-0.197 0.108-0.263l1.484-1.46c0.062-0.061 0.152-0.11 0.239-0.108l0.419 0.012-0.898 0.85c-0.070 0.066-0.084 0.179-0.084 0.275v2.005l-1.281 1.31c-0.093 0.095-0.075 0.216 0.060 0.216h1.113c0.195 0 0.315-0.049 0.443-0.192 0.078 0.093 0.095 0.304 0 0.395l-0.886 0.85c-0.123 0.118-0.308 0.18-0.479 0.18h-1.699c-0.251 0-0.319-0.277-0.143-0.455zM5.064 19.465h0.375c0.089 0 0.192-0.017 0.256-0.079l0.69-0.671c0.116-0.113 0.045-0.316-0.138-0.316h-1.952l-1.656-1.656c-0.075-0.075-0.118-0.189-0.118-0.296v-2.465c0-0.062-0.015-0.134-0.059-0.177l-0.572-0.572c-0.118-0.118-0.116-0.279 0-0.394l2.307-2.288c0.075-0.075 0.118-0.19 0.118-0.296v-0.769c0-0.184-0.010-0.306 0.158-0.473l1.321-1.321c0.118-0.118 0.153-0.104 0.277 0l0.611 0.513h1.026c0.092 0 0.195-0.030 0.256-0.098l0.355-0.395c0.061-0.068 0.165-0.099 0.256-0.099h1.223c0.283 0 0.414 0.141 0.414 0.414v0.612l1.42 1.38h2.051c0.094 0 0.19 0.052 0.256 0.118l0.69 0.69c0.092 0.092 0.223 0.092 0.316 0l1.519-1.499c0.144-0.143 0.315-0.139 0.453 0l0.769 0.769c0.059 0.059 0.079 0.154 0.079 0.237v0.927c0 0.11-0.013 0.217-0.221 0.217h-0.509c-0.154 0-0.217 0.105-0.217 0.217v0.828l-1.193 1.193h0.976c0.099 0 0.206-0.039 0.276-0.109l1.144-1.144c0.090-0.090 0.177-0.209 0.177-0.335v-0.93c0-0.198 0.064-0.244 0.214-0.244h0.398c0.197 0 0.322-0.125 0.322-0.274v-0.742c0-0.098-0.075-0.188-0.145-0.256l-1.439-1.4c-0.189-0.184-0.45-0.181-0.631 0l-1.44 1.439c-0.176 0.176-0.273 0.153-0.455 0l-0.491-0.414c-0.056-0.048-0.124-0.099-0.197-0.099h-2.426l-1.206-1.174c-0.050-0.049-0.096-0.117-0.096-0.187v-1.009c0-0.206-0.11-0.344-0.348-0.344h-1.821c-0.137 0-0.254 0.116-0.355 0.209l-0.749 0.69h-0.966l-0.789-0.73c-0.094-0.088-0.241-0.094-0.335 0l-1.459 1.44c-0.13 0.128-0.197 0.33-0.197 0.513v0.959l-2.584 2.61c-0.231 0.234-0.256 0.438-0.015 0.671l0.442 0.427v3.044c0 0.186 0.033 0.402 0.165 0.532l1.821 1.802c0.090 0.089 0.216 0.152 0.343 0.151l1.682-0.002c0.136-0 0.171 0.129 0.079 0.217z"></path>
<path fill="#ed1b24" style="fill: var(--color2, #ed1b24)" d="M6.68 17.373h0.696l0.462-1.788h0.429c0.168 0 0.235 0.125 0.189 0.301l-0.384 1.488h0.696l0.419-1.621c0.1-0.387-0.083-0.734-0.636-0.734h-1.262zM30.333 18.276h-1.063l0.152-0.59 0.956-0.003c0.11-0 0.253-0.070 0.279-0.177l0.032-0.132h-0.56c-0.554 0-0.737-0.348-0.636-0.735l0.203-0.785c0.21-0.813 0.74-0.835 0.912-0.835h1.392l-0.604 2.351c-0.166 0.646-0.429 0.906-1.062 0.906zM30.391 15.855l-0.168 0.651c-0.045 0.176 0.022 0.3 0.19 0.3h0.422l0.32-1.247h-0.426c-0.15 0-0.3 0.151-0.337 0.296zM21.909 18.276h-1.063l0.153-0.59 0.956-0.003c0.11-0 0.253-0.070 0.279-0.177l0.032-0.132h-0.56c-0.554 0-0.736-0.348-0.636-0.735l0.203-0.785c0.21-0.813 0.74-0.835 0.912-0.835h1.392l-0.604 2.351c-0.166 0.646-0.429 0.906-1.062 0.906zM21.967 15.855l-0.168 0.651c-0.045 0.176 0.022 0.3 0.189 0.3h0.422l0.32-1.247h-0.426c-0.149 0-0.3 0.151-0.337 0.296zM14.69 14.086h0.706l-0.239 0.933h0.56c0.554 0 0.736 0.348 0.636 0.734l-0.203 0.786c-0.21 0.813-0.74 0.835-0.912 0.835h-1.392zM15.455 16.536l0.168-0.65c0.045-0.176-0.022-0.301-0.189-0.301h-0.422l-0.32 1.247h0.426c0.149 0 0.299-0.151 0.337-0.296zM23.585 17.373h0.698l0.354-1.397c0.044-0.172 0.119-0.391 0.435-0.391h0.263l0.144-0.567h-0.406c-0.575 0-0.972 0.316-1.096 0.806zM19.197 17.373h0.698l0.354-1.397c0.044-0.172 0.119-0.391 0.435-0.391h0.264l0.144-0.567h-0.406c-0.575 0-0.972 0.316-1.096 0.806zM12.116 17.373h0.698l0.354-1.397c0.044-0.172 0.119-0.391 0.435-0.391h0.264l0.144-0.567h-0.405c-0.574 0-0.972 0.316-1.096 0.806zM19.181 15.018h-0.696l-0.462 1.788h-0.429c-0.168 0-0.235-0.125-0.189-0.3l0.384-1.488h-0.696l-0.419 1.62c-0.1 0.387 0.082 0.735 0.636 0.735h1.262zM26.013 17.373l0.61-2.355h-0.696l-0.606 2.355zM12.072 15.018h-0.696l-0.462 1.788h-0.429c-0.168 0-0.235-0.125-0.189-0.3l0.384-1.488h-0.696l-0.419 1.62c-0.1 0.387 0.082 0.735 0.636 0.735h1.262zM26.585 14.086c-0.182-0-0.42 0.111-0.466 0.288l-0.095 0.367h0.696l0.169-0.654zM11.904 14.086c-0.182-0-0.42 0.111-0.466 0.288l-0.095 0.367h0.696l0.169-0.654zM10.79 14.086c-0.182-0-0.42 0.111-0.465 0.288l-0.095 0.367h0.696l0.169-0.654zM26.646 17.373h0.696l0.462-1.788h0.429c0.168 0 0.235 0.125 0.189 0.301l-0.384 1.488h0.696l0.419-1.621c0.1-0.387-0.083-0.734-0.636-0.734h-1.262z"></path>
<path fill="#bcbdc1" style="fill: var(--color3, #bcbdc1)" d="M4.455 20.751h0.74c0.082 0 0.132 0.050 0.132 0.132v0.27h0.978l2.747-2.746h1.179l-3.437 3.436c-0.074 0.074-0.158 0.124-0.288 0.124h-1.989c-0.164 0-0.296-0.102-0.296-0.265v-0.782c0-0.145 0.137-0.169 0.233-0.169zM1.779 23.421v-1.987c0-0.095 0.040-0.196 0.108-0.263l1.484-1.46c0.062-0.061 0.152-0.11 0.239-0.108l0.419 0.012-0.898 0.85c-0.070 0.066-0.084 0.18-0.084 0.275v2.005l-1.281 1.31c-0.093 0.095-0.075 0.215 0.060 0.215h1.113c0.195 0 0.315-0.049 0.443-0.191 0.078 0.092 0.095 0.304 0 0.395l-0.886 0.85c-0.123 0.118-0.308 0.18-0.479 0.18h-1.699c-0.251 0-0.319-0.277-0.143-0.455zM5.064 19.267h0.375c0.089 0 0.192-0.017 0.256-0.079l0.69-0.671c0.116-0.113 0.045-0.315-0.138-0.315h-1.952l-1.656-1.656c-0.075-0.075-0.118-0.19-0.118-0.296v-2.465c0-0.062-0.015-0.133-0.059-0.177l-0.572-0.572c-0.118-0.118-0.116-0.279 0-0.394l2.307-2.287c0.075-0.075 0.118-0.19 0.118-0.296v-0.769c0-0.184-0.010-0.306 0.158-0.473l1.321-1.321c0.118-0.118 0.153-0.104 0.277 0l0.611 0.513h1.026c0.092 0 0.195-0.031 0.256-0.099l0.355-0.394c0.061-0.068 0.165-0.098 0.256-0.098h1.223c0.283 0 0.414 0.141 0.414 0.414v0.612l1.42 1.38h2.051c0.094 0 0.19 0.052 0.256 0.118l0.69 0.69c0.092 0.092 0.223 0.091 0.316 0l1.519-1.499c0.144-0.142 0.315-0.139 0.453 0l0.769 0.769c0.059 0.059 0.079 0.154 0.079 0.237v0.927c0 0.11-0.013 0.217-0.221 0.217h-0.509c-0.154 0-0.217 0.105-0.217 0.217v0.828l-1.193 1.193h0.976c0.099 0 0.206-0.039 0.276-0.109l1.144-1.144c0.090-0.090 0.177-0.209 0.177-0.335v-0.93c0-0.198 0.064-0.244 0.214-0.244h0.398c0.197 0 0.322-0.125 0.322-0.274v-0.742c0-0.098-0.075-0.188-0.145-0.256l-1.439-1.4c-0.189-0.184-0.45-0.182-0.631 0l-1.44 1.44c-0.176 0.176-0.273 0.153-0.455 0l-0.491-0.414c-0.056-0.047-0.124-0.099-0.197-0.099h-2.426l-1.206-1.174c-0.050-0.049-0.096-0.117-0.096-0.187v-1.008c0-0.206-0.11-0.344-0.348-0.344h-1.821c-0.137 0-0.254 0.116-0.355 0.208l-0.749 0.69h-0.966l-0.789-0.73c-0.094-0.087-0.241-0.093-0.335 0l-1.459 1.439c-0.13 0.129-0.197 0.33-0.197 0.513v0.959l-2.584 2.611c-0.231 0.234-0.256 0.438-0.015 0.671l0.442 0.427v3.044c0 0.186 0.033 0.402 0.165 0.532l1.821 1.802c0.090 0.089 0.216 0.152 0.343 0.152l1.682-0.001c0.136-0 0.171 0.129 0.079 0.217z"></path>
</symbol>
</defs>
</svg>
